<svg xmlns="http://www.w3.org/2000/svg" viewBox="0 0 500 500"><g id="freepik--background-complete--inject-47"><g><rect x="263.99789" y="62.9686" width="165.14811" height="219.8542" style="fill:#e0e0e0;"></rect><rect x="271.26469" y="71.6767" width="151.0469" height="202.8899" style="fill:#f5f5f5;"></rect><polygon points="313.95339 71.6767 271.26469 264.016 271.26469 159.8897 290.79829 71.6767 313.95339 71.6767" style="fill:#fff;"></polygon><polygon points="333.03259 71.6767 288.01159 274.5666 279.52079 274.5666 324.54169 71.6767 333.03259 71.6767" style="fill:#fff;"></polygon><polygon points="422.31159 127.0036 422.31159 231.1481 412.75009 274.5666 389.59439 274.5666 422.31159 127.0036" style="fill:#fff;"></polygon><rect x="343.63879" y="62.9686" width="5.8663" height="219.8542" style="fill:#e0e0e0;"></rect><rect x="266.86509" y="100.0492" width="159.1127" height="5.8664" style="fill:#e0e0e0;"></rect></g><g><rect x="101.6558" y="72.1576" width="77.279" height="99.1502" style="fill:#e6e6e6;"></rect><rect x="84.366" y="72.1576" width="90.7766" height="99.1502" style="fill:#f0f0f0;"></rect><rect x="92.7356" y="80.9644" width="73.6435" height="81.5364" style="fill:#fff;"></rect><rect x="116.926" y="107.0165" width="26.5834" height="29.4326" style="fill:#f0f0f0;"></rect></g><g><rect x="103.7488" y="191.2491" width="77.279" height="99.1502" style="fill:#e6e6e6;"></rect><rect x="86.459" y="191.2491" width="90.7766" height="99.1502" style="fill:#f0f0f0;"></rect><rect x="94.8286" y="200.0559" width="73.6435" height="81.5365" style="fill:#fff;"></rect><rect x="119.019" y="226.108" width="26.5834" height="29.4326" style="fill:#f0f0f0;"></rect></g><g><g><g><path d="M443.92039,309.5033h-180.7461c-3.2324,0-5.86229-2.6298-5.86229-5.8623V40.3676c0-3.2324,2.62989-5.8618,5.86229-5.8618h180.7461c3.2324,0,5.8623,2.6294,5.8623,5.8618V303.641c0,3.2325-2.6299,5.8623-5.8623,5.8623ZM263.17429,34.7558c-3.0947,0-5.61229,2.5176-5.61229,5.6118V303.641c0,3.0948,2.51759,5.6123,5.61229,5.6123h180.7461c3.0947,0,5.6123-2.5175,5.6123-5.6123V40.3676c0-3.0942-2.5176-5.6118-5.6123-5.6118h-180.7461Z" style="fill:#e0e0e0;"></path><path d="M235.49269,309.5033H54.7461c-3.2324,0-5.8618-2.6298-5.8618-5.8623V40.3676c0-3.2324,2.6294-5.8618,5.8618-5.8618H235.49269c3.2324,0,5.86231,2.6294,5.86231,5.8618V303.641c0,3.2325-2.62991,5.8623-5.86231,5.8623ZM54.7461,34.7558c-3.0942,0-5.6118,2.5176-5.6118,5.6118V303.641c0,3.0948,2.5176,5.6123,5.6118,5.6123H235.49269c3.0947,0,5.61231-2.5175,5.61231-5.6123V40.3676c0-3.0942-2.51761-5.6118-5.61231-5.6118H54.7461Z" style="fill:#e0e0e0;"></path></g><rect x="0" y="370.5727" width="500" height=".25" style="fill:#e0e0e0;"></rect></g><rect x="51.6724" y="384.8372" width="16.06" height=".25" style="fill:#e0e0e0;"></rect><rect x="170.3524" y="382.1272" width="53.53" height=".25" style="fill:#e0e0e0;"></rect><rect x="68.7324" y="394.1272" width="36.25" height=".25" style="fill:#e0e0e0;"></rect><rect x="378.35239" y="381.9972" width="43.19" height=".25" style="fill:#e0e0e0;"></rect><rect x="430.45239" y="381.9972" width="6.33" height=".25" style="fill:#e0e0e0;"></rect><rect x="316.21239" y="388.2272" width="53.89" height=".25" style="fill:#e0e0e0;"></rect></g></g><g id="freepik--Table--inject-47"><g><rect x="21.7956" y="396.0543" width="456.40879" height="45.6914" style="fill:#407BFF;"></rect><rect x="21.7956" y="431.2596" width="456.40879" height="10.4861" style="opacity:.2;"></rect></g></g><g id="freepik--Shadow--inject-47"><path d="M288.01579,407.4367c0,2.352-11.0237,4.2586-24.6221,4.2586s-24.6221-1.9066-24.6221-4.2586,11.0237-4.2585,24.6221-4.2585,24.6221,1.9066,24.6221,4.2585Z" style="opacity:.2;"></path></g><g id="freepik--Sauces--inject-47"><path d="M369.93679,424.7739c0,1.4706-6.8931,2.6628-15.3962,2.6628s-15.3961-1.1922-15.3961-2.6628c0-1.4707,6.8931-2.6629,15.3961-2.6629s15.3962,1.1922,15.3962,2.6629Z" style="opacity:.2;"></path><path d="M419.70219,414.2694c0,1.4707-7.6824,2.6629-17.1591,2.6629s-17.15909-1.1922-17.15909-2.6629c0-1.4706,7.68239-2.6628,17.15909-2.6628s17.1591,1.1922,17.1591,2.6628Z" style="opacity:.2;"></path><g><ellipse cx="355.01569" cy="412.3954" rx="18.539" ry="4.9587" style="fill:#263238;"></ellipse><path d="M371.53649,414.2694c0,2.2443-7.3966,4.0636-16.5208,4.0636s-16.5209-1.8193-16.5209-4.0636,7.3967-4.0635,16.5209-4.0635,16.5208,1.8193,16.5208,4.0635Z" style="fill:#407BFF;"></path><ellipse cx="355.01567" cy="414.2732" rx="16.52087" ry="4.0635" style="fill:#fff; opacity:.4;"></ellipse><path d="M362.49439,412.7553c-2.2819-1.637-9.42539,.4961-10.1695,.0496-.7441-.4464,6.2489-2.5001,6.2489-2.5001-1.651-.1252-3.7559-.1265-6.0813-.0676-.1992,.0491-8.3032,3.7584-4.285,4.5024,4.0182,.7442,10.5664-2.9172,8.8798-.4664-1.6868,2.4507-4.3655,3.046-4.3655,3.046,0,0,5.0599,1.9179,4.8615,1.9263s7.1931-4.8531,4.9111-6.4902Z" style="fill:#fff; opacity:.4;"></path><path d="M355.11249,417.2319c-9.3281,0-17.0442-1.843-18.34349-4.2417h-.19551c3.7766,7.4758,10.88451,13.8432,17.8341,13.1775h1.4097c6.94971,.6657,13.8639-5.7017,17.6405-13.1775h-.00179c-1.29931,2.3987-9.01541,4.2417-18.34351,4.2417Z" style="fill:#263238;"></path></g><g><g><ellipse cx="401.41571" cy="392.54848" rx="29.14252" ry="7.79483" style="fill:#263238;"></ellipse><ellipse cx="401.41571" cy="395.4943" rx="25.97002" ry="6.3877" style="fill:#263238;"></ellipse><ellipse cx="401.41571" cy="395.4943" rx="25.97002" ry="6.3877" style="fill:#fff; opacity:.4;"></ellipse><path d="M398.25809,389.1536c-.2025,.0062-10.1787,3.002-7.241,4.6228s19.39891-.2533,16.6638,1.4182c-2.7351,1.6714-9.6235,5.0143-9.6235,5.0143l6.8884,1.2156s9.978-4.5585,7.7494-7.3949c-2.2285-2.8364-17.93-.2272-17.5248-1.4811,.4052-1.254,10.6879-3.4288,10.5352-3.3949-.1528,.0339-7.4475,0-7.4475,0Z" style="fill:#fff; opacity:.3;"></path></g><path d="M401.568,400.1512c-14.66351,0-26.79281-2.8971-28.83531-6.6677h-.3073c5.93661,11.7516,17.11,21.7608,28.0345,20.7144h2.216c10.9246,1.0464,21.7935-8.9628,27.7302-20.7144h-.0029c-2.0425,3.7706-14.1718,6.6677-28.83519,6.6677Z" style="fill:#263238;"></path><path d="M419.369,393.9397c0,.2519-.54991,.4561-1.22821,.4561-.6782,0-1.2281-.2042-1.2281-.4561,0-.252,.5499-.4562,1.2281-.4562,.6783,0,1.22821,.2042,1.22821,.4562Z" style="fill:#407BFF;"></path><ellipse cx="393.65639" cy="397.2775" rx="1.2281" ry=".4562" style="fill:#407BFF;"></ellipse><path d="M387.84019,393.9397c0,.2519-.5498,.4561-1.2281,.4561s-1.22809-.2042-1.22809-.4561c0-.252,.54979-.4562,1.22809-.4562s1.2281,.2042,1.2281,.4562Z" style="fill:#407BFF;"></path></g></g><g id="freepik--Food--inject-47"><ellipse cx="91.0297" cy="422.4108" rx="22.4791" ry="3.8879" style="opacity:.2;"></ellipse><g><ellipse cx="91.60267" cy="392.1" rx="42.09587" ry="11.2595" style="fill:#263238;"></ellipse><g><path d="M125.8328,396.1789c.9014,.1159,1.8134,.3884,2.7028,.2014,1.5365-.3231,2.5216-2.0774,2.2305-3.6202-.2913-1.5428-1.6437-2.7547-3.1642-3.1463-1.5761-.4059-3.5704-.1933-4.4819-1.5415-1.1538-1.7065,.6853-4.0582,.0844-6.0285-.365-1.1971-1.621-1.9772-2.8706-2.0469-1.2495-.0698-2.4683,.4611-3.4815,1.1958-1.0401,.7542-2.2346,1.7942-3.4282,1.319-.8476-.3375-1.2378-1.3211-1.36-2.2251-.1223-.904-.0774-1.8547-.454-2.6855-.841-1.8555-3.5222-2.2317-5.2856-1.2116-1.7635,1.02-8.5457,12.8775-9.2427,14.7918l6.6911,7.8794c.661,2.4252,3.5326,3.989,5.9284,3.2283,1.6668-.5292,3.0597-1.9884,4.8084-1.9632,1.1072,.016,2.1069,.6397,2.9977,1.2975,.8907,.6578,1.7731,1.3886,2.8416,1.6793,1.0684,.2907,2.3976-.0101,2.9029-.9954,.8531-1.6638-1.0854-3.9611,.0723-5.4294,.5627-.7137,1.6071-.8147,2.5086-.6989Z" style="fill:#407BFF;"></path><g style="opacity:.3;"><path d="M125.8328,396.1789c.9014,.1159,1.8134,.3884,2.7028,.2014,1.5365-.3231,2.5216-2.0774,2.2305-3.6202-.2913-1.5428-1.6437-2.7547-3.1642-3.1463-1.5761-.4059-3.5704-.1933-4.4819-1.5415-1.1538-1.7065,.6853-4.0582,.0844-6.0285-.365-1.1971-1.621-1.9772-2.8706-2.0469-1.2495-.0698-2.4683,.4611-3.4815,1.1958-1.0401,.7542-2.2346,1.7942-3.4282,1.319-.8476-.3375-1.2378-1.3211-1.36-2.2251-.1223-.904-.0774-1.8547-.454-2.6855-.841-1.8555-3.5222-2.2317-5.2856-1.2116-1.7635,1.02-8.5457,12.8775-9.2427,14.7918l6.6911,7.8794c.661,2.4252,3.5326,3.989,5.9284,3.2283,1.6668-.5292,3.0597-1.9884,4.8084-1.9632,1.1072,.016,2.1069,.6397,2.9977,1.2975,.8907,.6578,1.7731,1.3886,2.8416,1.6793,1.0684,.2907,2.3976-.0101,2.9029-.9954,.8531-1.6638-1.0854-3.9611,.0723-5.4294,.5627-.7137,1.6071-.8147,2.5086-.6989Z"></path></g></g><path d="M108.8951,394.2842c-.3838-1.5419-2.8705-1.7459-3.2675-3.2845-.3428-1.3288,1.1222-2.3647,2.3696-2.9365,1.2475-.5718,2.7359-1.5342,2.4789-2.8823-.3057-1.6034-2.6852-1.7492-3.6204-3.087-.6894-.9864-.4108-2.3337-.6968-3.5026-.3534-1.4444-1.6808-2.5955-3.1606-2.7409-1.4797-.1455-3.0058,.7252-3.6337,2.073-.2346,.5035-.3648,1.0788-.758,1.4711-.7851,.7831-2.1684,.4004-2.9915-.3425-.8232-.7429-1.3679-1.769-2.2503-2.4406-1.9163-1.4583-4.84-.704-6.534,1.0075s-2.4611,4.1074-3.1725,6.4081l20.684,12.3493c.9843,.2217,2.0205,.4424,2.988,.1562,.9675-.286,1.8085-1.2692,1.5648-2.2483Z" style="fill:#407BFF;"></path><g style="opacity:.5;"><path d="M108.8951,394.2842c-.3838-1.5419-2.8705-1.7459-3.2675-3.2845-.3428-1.3288,1.1222-2.3647,2.3696-2.9365,1.2475-.5718,2.7359-1.5342,2.4789-2.8823-.3057-1.6034-2.6852-1.7492-3.6204-3.087-.6894-.9864-.4108-2.3337-.6968-3.5026-.3534-1.4444-1.6808-2.5955-3.1606-2.7409-1.4797-.1455-3.0058,.7252-3.6337,2.073-.2346,.5035-.3648,1.0788-.758,1.4711-.7851,.7831-2.1684,.4004-2.9915-.3425-.8232-.7429-1.3679-1.769-2.2503-2.4406-1.9163-1.4583-4.84-.704-6.534,1.0075s-2.4611,4.1074-3.1725,6.4081l20.684,12.3493c.9843,.2217,2.0205,.4424,2.988,.1562,.9675-.286,1.8085-1.2692,1.5648-2.2483Z" style="fill:#fff;"></path></g><path d="M131.6816,391.5406c-1.4671-.6103-3.1123,1.2654-4.5846,.6677-1.2715-.5163-1.2307-2.3101-.9468-3.6526,.2838-1.3426,.3976-3.1114-.8382-3.7081-1.47-.7097-3.0046,1.1146-4.6363,1.0687-1.203-.0339-2.1191-1.0603-3.2283-1.527-1.3706-.5766-3.086-.1962-4.0844,.9056-.9983,1.1019-1.2082,2.8463-.4997,4.1536,.2647,.4883,.6492,.9356,.73,1.4852,.1613,1.0971-.9702,1.9801-2.0573,2.1986-1.0871,.2186-2.2357,.0448-3.3008,.3535-2.3129,.6703-3.4488,3.4679-3.0834,5.8481,.3655,2.3801,1.8328,4.4237,3.2568,6.3657l22.2411-9.256c.7644-.6585,1.559-1.3592,1.9055-2.3067,.3466-.9476,.058-2.2087-.8736-2.5963Z" style="fill:#407BFF;"></path><g><path d="M93.3903,386.5737c.8301-.3699,1.7508-.6117,2.413-1.2342,1.1441-1.0752,1.0728-3.0859,.0215-4.252-1.0514-1.1661-2.8368-1.4975-4.3391-1.0409-1.5572,.4733-3.1497,1.6924-4.6296,1.0152-1.8731-.8571-1.5259-3.8223-3.0642-5.1924-.9345-.8324-2.413-.8453-3.5164-.2547-1.1034,.5905-1.8681,1.6779-2.3512,2.8325-.4959,1.1852-.975,2.6948-2.2416,2.9099-.8993,.1527-1.7443-.4843-2.319-1.1927-.5748-.7084-1.031-1.5437-1.7848-2.0573-1.6836-1.1471-4.1691-.0735-5.1444,1.715-.9754,1.7885-.5988,15.4435-.1981,17.4409l9.8135,3.2482c1.8262,1.7274,5.0921,1.5689,6.7425-.3271,1.1482-1.3191,1.5786-3.29,3.0851-4.1781,.9539-.5624,2.1322-.5498,3.2351-.4515,1.1029,.0984,2.2367,.2634,3.3004-.0442,1.0637-.3075,2.0424-1.2558,1.9613-2.3602-.137-1.8648-2.9877-2.8182-2.7629-4.6745,.1094-.9022,.9488-1.5319,1.7789-1.9019Z" style="fill:#407BFF;"></path><g style="opacity:.3;"><path d="M93.3903,386.5737c.8301-.3699,1.7508-.6117,2.413-1.2342,1.1441-1.0752,1.0728-3.0859,.0215-4.252-1.0514-1.1661-2.8368-1.4975-4.3391-1.0409-1.5572,.4733-3.1497,1.6924-4.6296,1.0152-1.8731-.8571-1.5259-3.8223-3.0642-5.1924-.9345-.8324-2.413-.8453-3.5164-.2547-1.1034,.5905-1.8681,1.6779-2.3512,2.8325-.4959,1.1852-.975,2.6948-2.2416,2.9099-.8993,.1527-1.7443-.4843-2.319-1.1927-.5748-.7084-1.031-1.5437-1.7848-2.0573-1.6836-1.1471-4.1691-.0735-5.1444,1.715-.9754,1.7885-.5988,15.4435-.1981,17.4409l9.8135,3.2482c1.8262,1.7274,5.0921,1.5689,6.7425-.3271,1.1482-1.3191,1.5786-3.29,3.0851-4.1781,.9539-.5624,2.1322-.5498,3.2351-.4515,1.1029,.0984,2.2367,.2634,3.3004-.0442,1.0637-.3075,2.0424-1.2558,1.9613-2.3602-.137-1.8648-2.9877-2.8182-2.7629-4.6745,.1094-.9022,.9488-1.5319,1.7789-1.9019Z"></path></g></g><g><path d="M111.9009,387.3257c.2831-.8636,.722-1.7082,.7053-2.6169-.0289-1.5698-1.567-2.8668-3.137-2.8706-1.5701-.0036-3.0143,1.0972-3.6844,2.5171-.6947,1.4719-.8603,3.4706-2.3557,4.1128-1.8928,.8128-3.8573-1.4352-5.9055-1.2149-1.2443,.1337-2.2464,1.2209-2.5495,2.4351s-.0106,2.5111,.5209,3.6442c.5455,1.1632,1.3426,2.5318,.6518,3.6149-.4906,.7691-1.53,.9677-2.4409,.918-.9109-.0496-1.8362-.2723-2.723-.0584-1.9804,.4777-2.8533,3.0406-2.1826,4.9642,.6708,1.9236,11.0439,10.8117,12.7932,11.8557l8.9957-5.0926c2.5062-.1938,4.5813-2.7207,4.2841-5.2167-.2068-1.7366-1.3786-3.3787-1.0254-5.0915,.2236-1.0845,1.024-1.9494,1.8373-2.7008,.8133-.7513,1.6968-1.4808,2.1829-2.4757,.4862-.9948,.4404-2.3568-.4325-3.0381-1.474-1.1505-4.0945,.3223-5.3193-1.0906-.5953-.6867-.4985-1.7315-.2154-2.5952Z" style="fill:#407BFF;"></path><g style="opacity:.3;"><path d="M111.9009,387.3257c.2831-.8636,.722-1.7082,.7053-2.6169-.0289-1.5698-1.567-2.8668-3.137-2.8706-1.5701-.0036-3.0143,1.0972-3.6844,2.5171-.6947,1.4719-.8603,3.4706-2.3557,4.1128-1.8928,.8128-3.8573-1.4352-5.9055-1.2149-1.2443,.1337-2.2464,1.2209-2.5495,2.4351s-.0106,2.5111,.5209,3.6442c.5455,1.1632,1.3426,2.5318,.6518,3.6149-.4906,.7691-1.53,.9677-2.4409,.918-.9109-.0496-1.8362-.2723-2.723-.0584-1.9804,.4777-2.8533,3.0406-2.1826,4.9642,.6708,1.9236,11.0439,10.8117,12.7932,11.8557l8.9957-5.0926c2.5062-.1938,4.5813-2.7207,4.2841-5.2167-.2068-1.7366-1.3786-3.3787-1.0254-5.0915,.2236-1.0845,1.024-1.9494,1.8373-2.7008,.8133-.7513,1.6968-1.4808,2.1829-2.4757,.4862-.9948,.4404-2.3568-.4325-3.0381-1.474-1.1505-4.0945,.3223-5.3193-1.0906-.5953-.6867-.4985-1.7315-.2154-2.5952Z"></path></g></g><path d="M105.2264,401.8198c-1.0223-1.2165-3.3457-.307-4.3784-1.5147-.8918-1.043-.0309-2.6173,.8384-3.679,.8693-1.0619,1.7834-2.5804,.9603-3.6784-.9791-1.3061-3.1807-.3915-4.6086-1.1824-1.0528-.5831-1.3944-1.9157-2.165-2.8401-.9521-1.1422-2.6503-1.593-4.0434-1.0735-1.3932,.5196-2.3815,1.9722-2.3533,3.4589,.0105,.5554,.1464,1.1294-.0345,1.6545-.3611,1.0485-1.7719,1.3125-2.8378,1.0068s-2.006-.988-3.0938-1.2036c-2.3621-.468-4.657,1.4942-5.4268,3.776-.7696,2.2817-.406,4.7711-.0342,7.1503l24.0066,2.005c.9816-.2334,2.0094-.4904,2.7527-1.1725,.7435-.6822,1.0669-1.9348,.4178-2.7073Z" style="fill:#407BFF;"></path><path d="M49.1901,387.2981c1.9468-.5744,3.7795,2.033,5.7312,1.4754,1.6854-.4816,1.8792-2.7653,1.7024-4.5092-.1767-1.744-.079-4.006,1.5721-4.5946,1.964-.7002,3.6633,1.8268,5.7419,1.9918,1.5324,.1217,2.8363-1.0565,4.309-1.4973,1.8196-.5447,3.9461,.1732,5.0632,1.7092s1.1449,3.7802,.0661,5.3434c-.403,.5841-.9525,1.0995-1.1303,1.7863-.3551,1.3713,.961,2.6477,2.3117,3.074,1.3508,.4263,2.8333,.3629,4.1437,.9007,2.8457,1.1678,3.9054,4.8764,3.1155,7.8492s-2.9332,5.3673-5.0075,7.6387l-26.9795-14.7995c-.8807-.9409-1.7939-1.9397-2.1044-3.1905s.2288-2.8129,1.4649-3.1776Z" style="fill:#407BFF;"></path><g style="opacity:.5;"><path d="M49.1901,387.2981c1.9468-.5744,3.7795,2.033,5.7312,1.4754,1.6854-.4816,1.8792-2.7653,1.7024-4.5092-.1767-1.744-.079-4.006,1.5721-4.5946,1.964-.7002,3.6633,1.8268,5.7419,1.9918,1.5324,.1217,2.8363-1.0565,4.309-1.4973,1.8196-.5447,3.9461,.1732,5.0632,1.7092s1.1449,3.7802,.0661,5.3434c-.403,.5841-.9525,1.0995-1.1303,1.7863-.3551,1.3713,.961,2.6477,2.3117,3.074,1.3508,.4263,2.8333,.3629,4.1437,.9007,2.8457,1.1678,3.9054,4.8764,3.1155,7.8492s-2.9332,5.3673-5.0075,7.6387l-26.9795-14.7995c-.8807-.9409-1.7939-1.9397-2.1044-3.1905s.2288-2.8129,1.4649-3.1776Z" style="fill:#fff;"></path></g><path d="M91.8225,403.082c-21.181,0-38.7016-4.1848-41.6519-9.6314h-.4439c8.5753,16.9749,24.7151,31.4331,40.4953,29.9216h3.201c15.7802,1.5115,31.4802-12.9467,40.0556-29.9216h-.0041c-2.9504,5.4466-20.471,9.6314-41.652,9.6314Z" style="fill:#263238;"></path></g></g><g id="freepik--Character--inject-47"><g><g><g><path d="M180.8811,250.3745c-.6927,0-27.0126,2.7812-33.8691,47.8101-6.8565,45.0288-23.9129,66.0864-17.2205,81.5375,6.6924,15.451,21.331,29.8942,37.6297,23.5556,16.2988-6.3387,13.4599-152.9032,13.4599-152.9032Z" style="fill:#407BFF;"></path><path d="M180.8811,250.3745c-.6927,0-27.0126,2.7812-33.8691,47.8101-6.8565,45.0288-23.9129,66.0864-17.2205,81.5375,6.6924,15.451,21.331,29.8942,37.6297,23.5556,16.2988-6.3387,13.4599-152.9032,13.4599-152.9032Z" style="fill:#fff; opacity:.5;"></path></g><g><path d="M198.202,250.8058c.36469,2.8885,10.77469,39.5102,50.94749,36.3098,40.1728-3.2004,39.65351-31.087,40.9779-31.087s21.59561,2.7218,24.2911,3.4001c2.69551,.6782,8.77551,114.6764,8.77551,114.6764l-4.99641,22.4815H185.3932l-9.526-72.8392,4.2244-72.9416h18.1104Z" style="fill:#407BFF;"></path><path d="M198.202,250.8058c.36469,2.8885,10.77469,39.5102,50.94749,36.3098,40.1728-3.2004,39.65351-31.087,40.9779-31.087s21.59561,2.7218,24.2911,3.4001c2.69551,.6782,8.77551,114.6764,8.77551,114.6764l-4.99641,22.4815H185.3932l-9.526-72.8392,4.2244-72.9416h18.1104Z" style="fill:#fff; opacity:.5;"></path><path d="M313.509,259.2037c1.76589,.8829,13.54089-.7914,21.92859,17.8134,8.3877,18.6047,35.2043,80.3977,35.0478,96.1002-.2201,22.0971-9.708,31.2812-20.9461,33.0943-1.9754,.3187-3.7931,.5385-5.4638,.6775-9.3982,.7818-17.6281-6.2875-18.4874-15.6789l-12.07909-132.0065Z" style="fill:#407BFF;"></path><path d="M313.509,259.2037c1.76589,.8829,13.54089-.7914,21.92859,17.8134,8.3877,18.6047,35.2043,80.3977,35.0478,96.1002-.2201,22.0971-9.708,31.2812-20.9461,33.0943-1.9754,.3187-3.7931,.5385-5.4638,.6775-9.3982,.7818-17.6281-6.2875-18.4874-15.6789l-12.07909-132.0065Z" style="fill:#fff; opacity:.5;"></path></g><path d="M339.91579,364.5093c-.11079,.0857,8.5718-5.4124,20.0163,.9752,0,0-9.2922-9.2695-20.0163-.9752Z" style="opacity:.2;"></path><path d="M333.20569,360.1993c-.17569,.1359,14.5381-10.8105,31.7592,1.5472,0,0-14.7436-14.7075-31.7592-1.5472Z" style="opacity:.2;"></path><polygon points="321.03379 352.2822 324.58649 298.309 317.69259 349.3888 321.03379 352.2822" style="opacity:.2;"></polygon></g><g><path d="M189.7186,151.704c-2.9497,10.5088-4.4038,21.3806-4.3192,32.2951-.149,12.4765,4.3375,23.9584,1.1025,36.2352-3.7807,14.3236-10.8771,24.9486,6.308,32.934,4.4814,1.7778,18.5419,.906,23.2771-.0002,16.74159-2.1217,25.78319,6.7927,42.41679,4.0053,20.7358-3.3481,14.1239,3.5694,31.0769-3.5716,12.0949,.5729,23.3435-4.4683,21.2544-23.9615,.5454-8.1033,8.8713-8.6392,12.3993-17.8668,1.8888-4.9403,.7637-10.5954-2.8066-14.4977-3.78179-4.1333-8.625-7.1931-9.9174-11.997-.2008-13.2227,6.6289-22.009,.8133-44.4286-3.4518-10.7126-13.5616-25.1915-25.0418-29.5834-37.5613-17.2451-56.3845,5.6667-56.3845,5.6667-22.1013-1.9844-33.7962,14.0082-40.1788,34.7705Z" style="fill:#263238;"></path><path d="M262.58169,243.4293c-3.6833-3.6393-4.4789-6.5179-3.8131-11.8468,.4611-4.0962,1.7597-8.3581,3.3112-12.5101l-5.4969-5.9117-28.56989-26.5331c1.45339,18.4498,6.44,48.2107-7.586,58.841,0,0-13.76171,6.0164-22.7946,6.1837,0,5.9849,4.1243,49.1858,76.511,43.3075,25.2042-2.0467,25.8218-30.1202,21.4837-37.2412-7.2469-1.9309-28.4935-10.0466-33.0454-14.2893Z" style="fill:#eec1bb;"></path><path d="M258.83959,233.9642c-7.84259-1.7999-19.15559-6.9918-21.0914-15.9352-.7967-3.6795-.9018-7.3324-.698-9.7649l23.431,14.5336c-.2629,3.4953-2.1865,6.1594-1.6416,11.1665Z" style="opacity:.2;"></path><path d="M216.476,157.3786c3.88,28.0483,4.92869,39.9702,20.14579,54.0689,22.8888,21.2071,56.1806,12.1815,60.6828-16.0057,4.0527-25.3698-2.9738-66.9752-31.1729-77.5373-27.7818-10.4054-53.5362,11.4256-49.65569,39.4741Z" style="fill:#eec1bb;"></path><path d="M252.43119,166.9011c.04881,2.6435,1.5889,4.8732,3.441,4.9808,1.8512,.1079,3.3129-1.9474,3.26381-4.5904-.048-2.6429-1.58861-4.8735-3.44021-4.9814-1.8509-.1081-3.3126,1.9475-3.2646,4.591Z" style="fill:#263238;"></path><path d="M248.02909,157.0753c.3607,.0196,.719-.1054,.983-.3774,4.1123-4.2591,9.07491-3.1224,9.132-3.1094,.7357,.1703,1.445-.2801,1.5695-1.028,.1223-.747-.3807-1.496-1.1264-1.6768-.2595-.061-6.4877-1.4938-11.5905,3.7937-.5078,.5269-.4692,1.4071,.0859,1.9658,.2685,.2679,.60841,.4138,.9465,.4321Z" style="fill:#263238;"></path><path d="M288.93739,149.0549c.325-.1106,.6011-.3366,.7537-.6569,.3155-.6608-.0078-1.4683-.7196-1.8038-7.1458-3.3606-12.6579-.3314-12.8906-.1977-.6547,.3704-.8407,1.1893-.4148,1.8312,.4237,.6406,1.2972,.8605,1.9516,.4945,.2144-.1215,4.5269-2.4095,10.2085,.264,.3677,.1724,.7679,.1863,1.1112,.0687Z" style="fill:#263238;"></path><path d="M273.53639,162.474s4.8935,10.3399,10.168,16.6832c.9218,1.1089,.4615,2.8101-.8671,3.3702-3.4188,1.4409-7.5431,.4701-7.5431,.4701l-1.7578-20.5235Z" style="fill:#d8847c;"></path><path d="M254.72379,162.4591l6.524-1.2872s-4.6203,4.6913-6.524,1.2872Z" style="fill:#263238;"></path><path d="M279.59539,165.077c.0488,2.6432,1.5889,4.8733,3.441,4.9809,1.8513,.1075,3.3129-1.9475,3.2641-4.5905-.0482-2.6429-1.5889-4.8738-3.4404-4.9814-1.8513-.1081-3.3124,1.9475-3.2647,4.591Z" style="fill:#263238;"></path><path d="M282.24679,160.6534l6.524-1.2875s-4.6204,4.6917-6.524,1.2875Z" style="fill:#263238;"></path><path d="M229.542,203.7524c-27.47981-17.8736-30.62261-87.1515,18.58379-91.1421,49.2068-3.9906,49.3518,55.1426,49.3518,55.1426-8.5028-54.743-56.7795-35.1712-56.7795-35.1712,9.4517,21.7996-9.7238,36.0949-9.7238,36.0949-6.8174,14.9151-1.43229,35.0758-1.43229,35.0758Z" style="fill:#263238;"></path><path d="M209.01329,180.7286c3.5936,5.6228,9.1673,9.0011,14.18171,10.0155,7.54169,1.5257,10.83849-10.6394,7.94929-17.992-2.6016-6.6183-10.13329-10.7312-17.3215-8.9299-7.0822,1.7747-8.9185,10.4767-4.8095,16.9064Z" style="fill:#eec1bb;"></path><path d="M221.42871,183.4502c-.02783,0-.05566-.00293-.0835-.00928-4.45361-1.01318-6.50586-3.32422-7.44287-5.08398-1.08496-2.0376-1.02197-3.92725-.60107-5.01709,.84473-2.18848,3.49756-3.87842,6.10645-2.90771,.19434,.07227,.29297,.28857,.2207,.48242-.07178,.19434-.2876,.29395-.48242,.2207-2.16211-.80566-4.44434,.65869-5.14551,2.4751-.34424,.89209-.40332,2.57812,.56348,4.39404,.86377,1.62207,2.77002,3.75488,6.94727,4.70508,.20215,.0459,.32861,.24707,.28271,.44873-.03955,.17432-.19434,.29199-.36523,.29199Z" style="opacity:.2;"></path><g><path d="M269.77289,191.4099c-2.0784,2.9644-4.6552,8.7592-4.6552,8.7592-.567-.1386-1.1343-.2774-1.6922-.4457-7.6439-2.076-10.50449-5.5646-11.3571-8.8021-.4596-1.773-.2963-3.4865,.0134-4.8349,.3425-1.5644,.9427-2.6013,.9427-2.6013,3.3952,3.5212,10.3721,6.0053,14.1538,7.1767,1.5785,.5069,2.5946,.7481,2.5946,.7481Z" style="fill:#263238;"></path><path d="M267.17829,190.6618l-1.4391,2.5465c-7.195-1.9728-11.9961-4.3274-13.6574-7.1219,.3425-1.5644,.9427-2.6013,.9427-2.6013,3.3952,3.5212,10.3721,6.0053,14.1538,7.1767Z" style="fill:#fff;"></path><path d="M263.42549,199.7234c-7.6439-2.076-10.50449-5.5646-11.3571-8.8021,2.5777,.8076,5.5953,2.0685,8.0309,3.9873,1.8681,1.4592,2.8216,3.1891,3.3262,4.8148Z" style="fill:#dc5753;"></path></g></g><g><g><g><g><path d="M215.26169,322.5997c9.8875,19.5724,28.4969,36.2429,46.6918,34.5001h3.6908c18.1949,1.7428,36.2972-14.9277,46.1848-34.5001h-96.5674Z" style="fill:#407BFF;"></path><ellipse cx="263.79889" cy="320.72248" rx="48.5372" ry="12.98242" style="fill:#407BFF;"></ellipse><path d="M310.05349,311.6226c-.348-.573-1.2097-.6307-1.7912-.2971-.5816,.3335-.946,.9381-1.2761,1.5217-1.35919,2.4035-2.5701,4.896-3.5141,7.4909l1.99291,1.6714c1.31549-3.5517,2.84879-7.0226,4.58849-10.3869Z" style="fill:#263238;"></path></g><g><g><path d="M245.09159,315.9798c-.1963-1.4967-1.6072-2.5444-3.0277-3.0551-1.4204-.5107-2.9644-.673-4.3175-1.3421-1.4132-.6988-2.5053-1.8925-3.622-3.0053-1.3797-1.375-2.9446-2.7182-5.0077-2.7607-.7676-.0159-1.5404,.2135-2.1389,.6944-1.52779,1.228-1.1896,3.0731-.5496,4.5755,1.07281,2.5181,2.9683,4.6778,5.3259,6.0682l.7081,.3256c.3861,.1777,.7886,.3142,1.2016,.4145,3.0285,.7359,6.1001,1.6894,9.1374,1.0603,.7173-.1485,1.5865-.9595,1.9986-1.565,.2761-.4058,.3557-.9236,.2918-1.4103Z" style="fill:#263238;"></path><g style="opacity:.3;"><path d="M245.09159,315.9798c-.1963-1.4967-1.6072-2.5444-3.0277-3.0551-1.4204-.5107-2.9644-.673-4.3175-1.3421-1.4132-.6988-2.5053-1.8925-3.622-3.0053-1.3797-1.375-2.9446-2.7182-5.0077-2.7607-.7676-.0159-1.5404,.2135-2.1389,.6944-1.52779,1.228-1.1896,3.0731-.5496,4.5755,1.07281,2.5181,2.9683,4.6778,5.3259,6.0682l.7081,.3256c.3861,.1777,.7886,.3142,1.2016,.4145,3.0285,.7359,6.1001,1.6894,9.1374,1.0603,.7173-.1485,1.5865-.9595,1.9986-1.565,.2761-.4058,.3557-.9236,.2918-1.4103Z" style="fill:#fff;"></path></g></g><g><path d="M250.78279,317.6204c.5677-1.3986-.1426-3.006-1.1261-4.1511s-2.2464-2.0481-3.0931-3.2977c-.8844-1.3051-1.2453-2.8822-1.66759-4.4012-.52171-1.8766-1.22-3.8171-2.99361-4.8721-.6598-.3925-1.4452-.5743-2.203-.4512-1.9348,.3142-2.551,2.0859-2.7356,3.7085-.3094,2.7196,.2737,5.5333,1.6384,7.9059l.4551,.6327c.2482,.345,.531,.6623,.84071,.9533,2.27109,2.1345,4.47229,4.4794,7.42459,5.4308,.6971,.2247,1.8533-.0518,2.5105-.3752,.4404-.2167,.7651-.6278,.9497-1.0827Z" style="fill:#263238;"></path><g style="opacity:.3;"><path d="M250.78279,317.6204c.5677-1.3986-.1426-3.006-1.1261-4.1511s-2.2464-2.0481-3.0931-3.2977c-.8844-1.3051-1.2453-2.8822-1.66759-4.4012-.52171-1.8766-1.22-3.8171-2.99361-4.8721-.6598-.3925-1.4452-.5743-2.203-.4512-1.9348,.3142-2.551,2.0859-2.7356,3.7085-.3094,2.7196,.2737,5.5333,1.6384,7.9059l.4551,.6327c.2482,.345,.531,.6623,.84071,.9533,2.27109,2.1345,4.47229,4.4794,7.42459,5.4308,.6971,.2247,1.8533-.0518,2.5105-.3752,.4404-.2167,.7651-.6278,.9497-1.0827Z" style="fill:#fff;"></path></g></g><g><path d="M259.01239,318.9569c.5677-1.3986-.1426-3.0061-1.1261-4.1511-.9835-1.1451-2.2464-2.0481-3.0931-3.2977-.8844-1.3051-1.2453-2.8822-1.6676-4.4012-.52159-1.8766-1.22-3.8171-2.9935-4.8721-.6599-.3925-1.4452-.5743-2.20309-.4513-1.93481,.3143-2.551,2.086-2.73561,3.7086-.30939,2.7196,.2738,5.5333,1.6384,7.9059l.4551,.6326c.2483,.345,.531,.6624,.8407,.9534,2.2711,2.1345,4.4723,4.4793,7.4246,5.4308,.6971,.2247,1.8533-.0518,2.5105-.3752,.4404-.2167,.7651-.6278,.9497-1.0827Z" style="fill:#263238;"></path><g style="opacity:.3;"><path d="M259.01239,318.9569c.5677-1.3986-.1426-3.0061-1.1261-4.1511-.9835-1.1451-2.2464-2.0481-3.0931-3.2977-.8844-1.3051-1.2453-2.8822-1.6676-4.4012-.52159-1.8766-1.22-3.8171-2.9935-4.8721-.6599-.3925-1.4452-.5743-2.20309-.4513-1.93481,.3143-2.551,2.086-2.73561,3.7086-.30939,2.7196,.2738,5.5333,1.6384,7.9059l.4551,.6326c.2483,.345,.531,.6624,.8407,.9534,2.2711,2.1345,4.4723,4.4793,7.4246,5.4308,.6971,.2247,1.8533-.0518,2.5105-.3752,.4404-.2167,.7651-.6278,.9497-1.0827Z" style="fill:#fff;"></path></g></g></g><g><g style="opacity:.8;"><path d="M297.86129,318.1946c.542-1.8167-.808-3.0766-2.181-3.8667-2.0518-1.1806-4.3888-1.7578-6.7055-2.244-17.1667-3.6027-35.2194-2.9018-52.055,2.0212-2.039,.5962-4.2322,1.3943-5.5321,2.9943-.3909,.481-.4989,1.1339-.2724,1.7109h0c.2146,.5466,.6956,.9474,1.2728,1.0558,19.8426,3.7267,40.2974,4.0847,60.2897,1.2651,1.56721-.221,3.1906-.4819,4.3846-1.6459,.366-.3568,.6528-.8008,.7989-1.2907Z" style="fill:#fff;"></path></g><path d="M272.44669,306.6536c-4.945-1.5355-8.3456-1.6761-12.5544-.5175-1.539,.4236-4.0564,1.339-5.37829,2.2338-1.322,.8947-3.59251,2.092-3.711,3.6839,8.55839,3.9748,19.969,4.2616,28.26779-.2301-.9019-2.4156-4.1616-4.4055-6.6241-5.1701Z" style="fill:#407BFF;"></path><g style="opacity:.3;"><path d="M272.44669,306.6536c-4.945-1.5355-8.3456-1.6761-12.5544-.5175-1.539,.4236-4.0564,1.339-5.37829,2.2338-1.322,.8947-3.59251,2.092-3.711,3.6839,8.55839,3.9748,19.969,4.2616,28.26779-.2301-.9019-2.4156-4.1616-4.4055-6.6241-5.1701Z" style="fill:#fff;"></path></g><g style="opacity:.3;"><path d="M267.34829,311.2571c-1.511-.3586-3.0776-.4098-4.6067-.6812-1.3761-.2442-2.7722-.6996-3.8195-1.607-.2778-.2407-.6208-.3935-.9766-.4859h0c-.5636-.1462-1.1633-.1029-1.6932,.1382-1.1698,.5324-2.2311,1.3036-3.095,2.2554-.095,.1047-.1931,.2255-.1915,.3668,.0025,.2347,.262,.3691,.4829,.4483,3.4516,1.2368,7.1307,1.8355,10.7962,1.7568,1.0897-.0234,2.189-.108,3.2307-.4284,.4369-.1344,.9343-.409,.9405-.8661,.0067-.5041-.5773-.7804-1.0678-.8969Z" style="fill:#fff;"></path></g></g><path d="M299.82459,326.8382c.7358-2.5417-.471-5.5117-2.7711-6.8199-1.236-.7029-2.715-.959-3.8408-1.8275-1.0766-.8304-1.6888-2.1096-2.2968-3.3257s-1.2431-2.5778-2.4604-3.1835c-1.8633-.9273-4.4619-.5644-5.7859,1.502-.9323,1.245-.7779,2.9801-.419,4.4935,.8947,3.7734,1.9137,6.3006,4.5918,9.1054,1.6413,1.719,5.05161,3.3424,7.4258,3.4528,2.6432,.1229,4.8206-.8554,5.5564-3.3971Z" style="fill:#b97964;"></path><path d="M287.59509,316.9314c-2.2986-1.3108-5.4686-.8335-7.2792,1.0962-.97289,1.0369-1.5684,2.4148-2.6764,3.3058-1.0596,.852-2.4466,1.1476-3.7713,1.4538-1.3247,.3061-2.7973,.6046-3.6713,1.646-1.338,1.5943-1.594,4.2056,.1047,5.9769,.992,1.1979,2.715,1.4543,4.2703,1.46,3.878,.0142,6.5736-.3844,9.9278-2.3308,2.0556-1.193,4.4328-4.128,5.09631-6.4103,.73869-2.5409,.29769-4.8868-2.00091-6.1976Z" style="fill:#a24e3f;"></path><path d="M302.93679,311.6226c-.348-.573-1.2097-.6307-1.7912-.2971-.58159,.3335-.946,.9381-1.276,1.5217-1.3593,2.4035-2.5702,4.896-3.5142,7.4909l1.9929,1.6714c1.3155-3.5517,2.8489-7.0226,4.5885-10.3869Z" style="fill:#263238;"></path><path d="M306.51359,310.9583c-.348-.573-1.2097-.6306-1.7912-.2971-.5816,.3335-.946,.9382-1.276,1.5217-1.3593,2.4035-2.5702,4.896-3.5142,7.4909l1.9929,1.6714c1.3155-3.5516,2.84891-7.0226,4.5885-10.3869Z" style="fill:#263238;"></path><path d="M298.388,310.5307c-.49891-.4478-1.34031-.2537-1.80051,.2338-.4603,.4875-.6341,1.1717-.7812,1.8258-.6058,2.694-1.0438,5.4302-1.1967,8.1872l2.3912,1.0234c.2318-3.7804,.6953-7.5465,1.38721-11.2702Z" style="fill:#263238;"></path><path d="M307.72409,314.9185c-2.2986-1.3108-5.4687-.8334-7.2793,1.0962-.9729,1.0369-1.5683,2.4148-2.6764,3.3058-1.0596,.852-2.4465,1.1476-3.7712,1.4538-1.3247,.3061-2.7973,.6046-3.6714,1.646-1.338,1.5943-1.594,4.2056,.1048,5.9769,.9919,1.1979,2.7149,1.4543,4.2703,1.46,3.8779,.0142,6.5736-.3844,9.9277-2.3308,2.0557-1.193,4.4328-4.128,5.09641-6.4103,.73869-2.5409,.29769-4.8868-2.00091-6.1976Z" style="fill:#a24e3f;"></path><path d="M298.20539,317.3033c-2.2986-1.3108-5.4687-.8334-7.2793,1.0963-.9729,1.0368-1.5683,2.4148-2.6764,3.3058-1.0595,.852-2.4465,1.1475-3.7712,1.4537s-2.7973,.6046-3.6714,1.6461c-1.338,1.5942-1.594,4.2055,.1048,5.9768,.9919,1.198,2.715,1.4544,4.2703,1.46,3.878,.0143,6.5736-.3843,9.9277-2.3308,2.0557-1.193,4.4328-4.128,5.0964-6.4103,.73871-2.5409,.29771-4.8868-2.0009-6.1976Z" style="fill:#b97964;"></path><path d="M275.63339,321.3166c-1.2011-2.3577-4.1125-3.6997-6.68539-3.0814-1.38251,.3323-2.63681,1.1568-4.05211,1.293-1.3534,.1301-2.6748-.3846-3.95-.8562-1.2753-.4716-2.6698-1.0309-3.9722-.6405-1.99369,.5975-3.64169,2.6392-3.1948,5.0524,.1712,1.5459,1.4703,2.7064,2.767,3.5653,3.23311,2.1415,5.7047,3.2888,9.5767,3.5041,2.3732,.1319,5.9716-1.0155,7.77941-2.5584,2.01279-1.7178,2.93259-3.9205,1.73139-6.2783Z" style="fill:#b97964;"></path><path d="M281.97069,332.7607c-2.7722-4.697-7.6702-8.1307-13.0678-8.9969-1.0056-.1614-2.0264-.2396-3.0535-.2781-2.786-.1045-5.6179,.0848-8.327-.243-1.4291-.1729-2.825-.4861-4.1599-1.0714-1.0911-.4785-2.0841-1.1194-3.0387-1.8261-1.8191-1.3468-3.4895-2.9471-5.3695-4.2201-5.3512-3.6233-14.6977-5.0072-20.6517-2.4944,0,0-4.3745,1.1452-7.0197,3.3827-.9946,.8937-1.63489,1.8276-1.88689,2.7906-.32,1.4802,.30189,3.2202,2.59959,5.2153,6.6321,5.0576,24.6289,8.6856,45.8033,8.6856,6.4276,0,12.5575-.3373,18.1718-.9442Z" style="fill:#ffb573;"></path><path d="M217.9998,317.04391c7.83715-2.06237,16.88297-3.69207,24.18349,.85549,2.3717,1.45502,4.43897,3.30591,6.7767,4.70408,2.30833,1.45084,4.99091,2.15512,7.70242,2.45496,5.4132,.61878,11.19707-.13917,16.30378,2.21826,2.49685,1.1684,4.73642,3.09537,5.8273,5.65021-1.1676-2.52042-3.43951-4.35001-5.92834-5.42737-5.12013-2.2449-10.82102-1.37244-16.25339-1.98888-2.74417-.28629-5.5273-.99665-7.90915-2.47919-2.3839-1.44653-4.43927-3.30832-6.75757-4.74542-7.18449-4.49937-16.12042-3.01898-23.94524-1.24213h0Z" style="fill:#d58745;"></path><path d="M216.32019,319.5705c7.44672-1.95681,15.92103-3.5602,23.10059,.23067,3.50007,1.85295,6.22591,4.78632,9.84267,6.3688,7.20567,3.23652,16.04257-.04685,22.83901,4.36755,1.07759,.72494,2.1367,1.61254,2.64714,2.83547-.54776-1.20526-1.62238-2.04813-2.71152-2.73425-6.94528-4.1652-15.6772-.77053-22.96319-4.03057-3.65099-1.54328-6.4388-4.56763-9.86772-6.4058-7.07176-3.75174-15.41853-2.30686-22.88698-.63187h0Z" style="fill:#d58745;"></path><path d="M216.2565,323.09399c6.64365-1.73815,13.90137-3.22938,20.60683-.86283,4.49844,1.44485,7.68695,5.21253,11.82574,7.24393,4.19907,2.00022,8.98826,1.86199,13.54673,2.1114,2.31183,.14126,4.64023,.39984,6.85849,1.08172-4.51208-1.20428-9.19214-.67078-13.82123-1.10089-4.75539-.17467-9.01781-2.58685-12.61273-5.51435-7.40285-6.27965-17.61251-5.0404-26.40384-2.95898h0Z" style="fill:#d58745;"></path><path d="M220.25189,326.36179c4.63877-1.2948,9.6363-1.576,14.37473-.65168,3.62218,.68115,6.81916,2.70603,9.4558,5.20641,.91865,.76503,1.89909,1.46178,2.97547,2.01039-1.11084-.46304-2.18524-1.05191-3.1505-1.78839-2.74963-2.32956-5.81494-4.23628-9.38274-4.97176-4.66822-.95046-9.62505-.88357-14.27277,.19502h0Z" style="fill:#d58745;"></path></g><g><path d="M300.99029,335.1934s-17.5694-5.4309-21.9378-2.8593c-4.3689,2.5723,1.7827,6.3798,1.7827,6.3798,0,0-7.026-3.7737-9.0314-1.0071-2.4076,3.3205,4.0553,7.2811,4.0553,7.2811,0,0-5.86309-2.8465-7.4818-.2662-1.6795,2.6768,5.2973,7.6654,5.2973,7.6654,0,0-4.5073-1.2236-4.6179,1.2073-.1099,2.4311,14.4922,13.3049,20.8364,13.5383,6.344,.2337,19.745-18.9613,21.65291-23.8074,.61069-1.5516,1.66669-12.3198-1.14131-18.0297l-8.8909,10.0526-.5235-.1548Z" style="fill:#eec1bb;"></path><path d="M280.63309,339.0395c.0094,.0059,.0187,.0114,.0292,.0159l12.5632,5.9929c.169,.0793,.3839-.0083,.4788-.1964,.0953-.1891,.0315-.4136-.1318-.4881l-12.564-5.9923c-.1687-.0799-.3836,.0077-.4787,.1957-.0901,.1783-.043,.3825,.1033,.4723Z" style="opacity:.2;"></path><path d="M275.99289,345.5215l.0073,.0047,11.60981,6.7151c.16219,.0933,.37949,.0213,.486-.1604,.10859-.1838,.06889-.3634-.09771-.5009l-11.6096-6.716c-.1621-.0933-.3796-.0207-.4869,.1611-.106,.1806-.0646,.4002,.0911,.4964Z" style="opacity:.2;"></path><path d="M273.86249,352.9544l8.484,5.2366c.1589,.0984,.3783,.031,.4892-.1491,.1108-.1794,.0729-.4054-.0858-.5036l-8.4845-5.2374c-.1591-.0981-.3778-.0306-.4892,.1491-.1109,.1797-.0729,.4059,.0863,.5044Z" style="opacity:.2;"></path></g></g><path d="M306.51359,341.7097c.441,.441,30.051,20.4667,41.7898,28.5335,9.3669,6.4369,8.8787,21.0482,2.1067,30.1757-.8597,1.1587-1.8478,2.2625-2.98309,3.2795-10.21781,9.1534-27.85331-2.9272-35.09091-16.1251-7.2375-13.1979-18.5872-25.3969-18.5872-25.3969l12.7647-20.4667Z" style="fill:#eec1bb;"></path><path d="M295.62479,364.2534s7.646-7.2147,8.9657-10.0008l-7.1272,12.1721-1.8385-2.1713Z" style="opacity:.2;"></path></g><g><path d="M185.3932,396.5866s5.1373-15.0873,7.3724-25.9832c2.235-10.8959,3.1999-71.8013,3.9747-71.522,.7748,.2794,4.2863-10.6165,2.2511-14.8072-2.0351-4.1908-4.9061-10.756-4.9061-10.756,0,0,4.3383-2.6544,6.1191-5.1689,1.7808-2.5144,2.3395-9.351,3.4571-9.1456,1.11751,.2054,50.0437-5.4581,50.0437-5.4581l1.3627-3.3969-66.2137,6.9408-4.1907,20.5589s-.4542,109.1128-.3668,110.4329,1.0965,8.3053,1.0965,8.3053Z" style="opacity:.2;"></path><path d="M129.7915,250.3487v5.5054l138.3998-7.7992v-3.2117s-136.9504,5.5055-138.3998,5.5055Z" style="fill:#407BFF;"></path><g><path d="M264.35409,242.3465c.5351-2.2494,.1481-4.5439-3.1034-5.1826-.6528-.1282-1.5234-.3266-2.5433-.3279-2.9993-.0038-5.7093,2.5015-6.9413,6.3159-1.5995,4.9521-2.7912,10.6904-2.9445,15.3586-.1015,3.0907,.1041,6.3449,1.29941,8.9512,1.71949,3.7497,7.01789,4.1697,9.94189,1.4057,1.7184-1.6242,1.1745-3.0168,1.1306-5.9116-.0298-1.964-.3184-3.9755-.3411-5.9526-.0319-2.7979,.48861-5.6043,1.4895-8.0293,.943-2.2847,1.3974-4.0427,2.0122-6.6274Z" style="fill:#b97964;"></path><path d="M255.06789,238.15981c2.12746,2.48919,5.46262,3.45363,8.59173,2.49214-2.86235,1.72415-7.09471,.4935-8.59173-2.49214h0Z" style="fill:#a24e3f;"></path><path d="M254.44029,270.0242c-2.16379-2.7346-.14974-6.96008,3.03284-7.80458,1.03343-.32476,2.12925-.3821,3.16816-.19683-1.05188,.02206-2.09143,.17969-3.03949,.55917-2.90225,1.05559-4.68826,4.59803-3.16151,7.44223h0Z" style="fill:#a24e3f;"></path><path d="M249.67349,259.9108c2.30185-3.96769,6.96968-5.85573,11.26637-6.74153-4.13436,1.58677-8.38966,3.20936-11.26637,6.74153h0Z" style="fill:#a24e3f;"></path><path d="M251.315,248.6033c3.46013-1.80191,7.64185-3.38221,11.53629-2.10142-4.02306-.5698-7.7605,.93364-11.53629,2.10142h0Z" style="fill:#a24e3f;"></path></g><path d="M130.2248,265.2874l-.4333-5.439,138.1575-13.0786s.54539,2.8985,0,2.8985-137.7242,15.6191-137.7242,15.6191Z" style="fill:#407BFF;"></path><path d="M175.5171,291.4172s-12.1475-12.6089-13.2768-17.6911c-1.1294-5.0823-1.1294-18.9172,2.1176-22.1642,3.2469-3.247,19.8251-6.3696,22.1642-3.1058,1.3749,1.9184-1.1294,5.0822-1.1294,5.0822,0,0,11.0115-4.094,11.5762-.1412,.5647,3.9529-2.0995,4.9096-2.0995,4.9096,0,0,4.0314-.6587,4.5861,3.2576,.39451,2.786-3.3337,3.2679-3.3337,3.2679,0,0,3.2351,3.0578-.5765,4.748-3.8117,1.6902-6.9056-.2266-6.9056-.2266,0,0,3.579,5.0629,5.6469,9.8782,2.2474,5.2333,3.8117,11.9997,.5647,15.1056l-1.9096,9.7707-18.7017-8.5002,1.2771-4.1907Z" style="fill:#eec1bb;"></path><path d="M174.24,295.6079c-.7272,1.0907-12.6823,33.2004-19.9074,51.316-6.3378,15.891-10.5436,27.6315-10.3618,39.993,.1818,12.3615,10.6244,17.4942,23.4504,16.3608,12.8654-1.137,17.9584-14.4987,20.7237-28.904,1.5644-8.1499,7.0134-81.8832,7.0134-81.8832l-20.9183,3.1174Z" style="fill:#eec1bb;"></path><polygon points="175.5171 291.4172 182.8114 299.4816 174.5454 294.6056 175.5171 291.4172" style="opacity:.2;"></polygon></g></g></g></svg>
